<?xml version="1.0" standalone="no"?>
<!DOCTYPE svg PUBLIC "-//W3C//DTD SVG 20010904//EN"
 "http://www.w3.org/TR/2001/REC-SVG-20010904/DTD/svg10.dtd">
<svg version="1.0" xmlns="http://www.w3.org/2000/svg"
 width="700.000000pt" height="700.000000pt" viewBox="0 0 700.000000 700.000000"
 preserveAspectRatio="xMidYMid meet">
<metadata>
Created by potrace 1.14, written by Peter Selinger 2001-2017
</metadata>
<g transform="translate(0.000000,700.000000) scale(0.100000,-0.100000)"
fill="#000000" stroke="none">
<path d="M1286 6239 c-67 -20 -127 -63 -159 -112 -14 -20 -57 -115 -97 -210
-40 -94 -79 -185 -86 -202 -111 -259 -567 -1339 -605 -1435 -32 -81 -37 -105
-35 -160 5 -125 1 -120 499 -617 285 -284 467 -458 493 -471 64 -33 121 -37
444 -36 252 1 315 4 361 17 75 22 153 92 187 167 24 52 25 65 25 226 0 170 0
171 -30 236 -23 49 -44 76 -83 107 -74 58 -120 69 -308 70 -88 1 -169 3 -180
6 -73 14 -121 50 -283 213 -151 152 -167 172 -183 223 -18 60 -20 158 -3 200
6 13 16 38 22 54 37 93 306 735 319 761 26 51 86 105 145 132 53 23 67 24 251
26 225 2 283 -4 345 -34 63 -30 396 -363 432 -433 l28 -52 5 -1535 c3 -844 8
-1542 13 -1550 13 -27 43 -38 125 -50 157 -21 176 -5 196 165 4 28 11 82 16
120 9 66 14 108 26 200 2 22 7 51 9 65 2 14 7 52 11 85 3 33 7 67 9 75 1 8 6
44 11 80 4 36 8 67 9 70 1 5 15 114 21 160 6 51 25 196 29 219 2 14 7 54 11
90 3 36 7 68 9 71 2 3 6 34 10 70 4 36 8 72 10 80 1 8 6 40 9 70 4 30 10 73
13 95 3 22 6 51 8 65 6 61 16 136 20 150 2 8 7 42 10 75 3 33 8 71 10 85 6 39
14 101 20 150 8 68 15 122 20 150 2 14 7 48 10 75 3 28 8 66 10 85 3 19 7 58
11 85 3 28 7 57 9 65 2 8 7 40 10 70 7 66 9 80 30 240 21 166 25 190 30 225 2
17 7 57 11 90 3 33 8 63 10 67 3 4 5 32 5 63 1 64 -9 83 -91 170 -32 33 -76
80 -100 105 -23 25 -99 106 -170 180 -70 74 -140 149 -156 165 -207 226 -327
344 -381 370 l-58 29 -628 1 c-558 1 -634 -1 -681 -16z"/>
<path d="M3928 5181 c-30 -24 -44 -64 -53 -158 -3 -34 -8 -70 -10 -81 -2 -10
-6 -43 -10 -73 -3 -30 -8 -65 -10 -79 -2 -14 -7 -50 -10 -80 -4 -30 -9 -62
-10 -71 -2 -9 -6 -40 -10 -70 -3 -30 -10 -81 -15 -114 -5 -33 -12 -85 -15
-115 -3 -30 -8 -66 -10 -80 -4 -25 -10 -68 -19 -145 -3 -22 -13 -94 -21 -160
-9 -66 -18 -133 -20 -150 -2 -16 -6 -46 -9 -65 -2 -19 -8 -57 -11 -85 -4 -27
-8 -61 -10 -75 -2 -14 -7 -50 -10 -80 -3 -30 -8 -66 -10 -80 -2 -14 -9 -62
-15 -107 -6 -46 -13 -97 -15 -115 -3 -18 -7 -58 -10 -88 -3 -30 -7 -62 -10
-70 -2 -8 -7 -42 -11 -75 -3 -33 -7 -67 -9 -75 -1 -8 -6 -40 -10 -70 -3 -30
-8 -66 -10 -80 -2 -14 -6 -43 -9 -65 -3 -22 -10 -78 -17 -125 -6 -47 -13 -101
-15 -120 -2 -19 -7 -51 -10 -70 -2 -19 -7 -55 -10 -80 -3 -25 -11 -90 -19
-145 -8 -55 -16 -120 -19 -145 -6 -49 -25 -192 -31 -225 -6 -41 24 -96 88
-162 36 -38 84 -88 107 -113 23 -25 100 -106 170 -180 70 -74 142 -151 160
-170 216 -235 326 -341 378 -367 l57 -27 645 -1 645 0 57 28 c64 32 111 75
139 130 16 30 246 567 316 737 16 38 39 94 53 125 5 11 52 124 105 250 53 127
103 244 110 260 35 77 203 484 215 519 16 51 6 155 -21 210 -26 50 -884 916
-946 952 -23 14 -56 29 -75 35 -34 10 -660 13 -713 3 -78 -14 -159 -69 -201
-136 -39 -62 -49 -122 -48 -285 1 -140 3 -152 29 -211 31 -69 85 -124 149
-152 59 -27 81 -29 260 -31 229 -1 229 -2 429 -197 183 -181 218 -235 218
-338 0 -32 -4 -72 -9 -89 -5 -16 -83 -208 -172 -425 -188 -456 -205 -485 -309
-533 l-66 -31 -235 0 c-310 0 -289 -10 -531 235 -118 119 -189 199 -207 233
l-27 51 -5 1520 c-3 836 -9 1528 -14 1538 -15 30 -60 46 -152 53 -82 6 -91 4
-116 -15z"/>
</g>
</svg>
